<?xml version="1.0" encoding="UTF-8"?>
<svg version="1.1" viewBox="0 0 1414 1414" width="1280" height="1280" xmlns="http://www.w3.org/2000/svg">
<path transform="translate(0)" d="m0 0h1414v1414h-1414z" fill="#FCFCFC"/>
<path transform="translate(229,193)" d="m0 0h853l9 2 14 7 7 7 6 11 2 7v140l-4 10-6 8-10 6-5 2-10 1h-428l1 114 282 1 12 2 18 6 11 6 11 8 10 9 8 9 7 10 7 14 4 11 2 8 2 18-1 12-3 16-4 12-6 11-6 9h-2l-2 4-12 12h-2v2l-15 10-15 6-16 4-218 1h-50l-23-1v116h432l11 4 6 4 5 5 5 6 4 12v138l-6 12-9 8-9 4-6 1h-125l1 2 14 3 18 7 11 6 11 8 6 5 8 10 6 10 1 8-3 1-23 1-3-2 4 8 4 13v29l-3 9-6 12-11 13-11 8-12 6-7 2-8 1h-19l-11-2-10-3-11-7-9-9-8-11-6-14-2-11v-16l1-10 5-12 1-5-3 1h-278l-25-1 6 17 2 11v12l-2 12-6 15-4 6h-2l-2 4-10 10-14 8-12 4-13 2h-11l-14-3-9-4-12-7v-2h-2v-2h-2v-2h-2l-6-8-6-10-5-15-1-5v-16l2-12 3-8 3-6h-15l-19-4-15-7-12-7-11-10-8-10-8-13-5-11-5-16-2-10-1-257v-283l-1-163-5-8-8-7-5-1h-36l-10-2-10-4-8-6-7-7-4-7v-2l-3-1-44-1-10-4-7-8-2-6v-13l4-8 7-6 6-3z" fill="#112F41"/>
<path transform="translate(0,559)" d="m0 0 3 3 5 10 1 4 5 13 8 20 3 6 2 7 4 10 2 3v3l3 1 3 10 8 16 3 7 5 13 6 9 3 7 4 2 2 9 3 4 2 6 4 6v2h2l5 14 7 9 6 11v2h2l4 9v2l3 1 4 8 3 5v2h2l7 11 5 7 2 6 3 5 3 3 2 4 2 1 6 11 10 12 3 5 5 6 6 9 5 9 5 6 1 5 5 2 6 8 4 5v2l4 2 10 13 2 1 5 9 5 6 5 4 6 9 5 4 5 5 7 8 4 6 6 6 3 5 6 4 6 7 3 5 7 4 12 13 12 11 4 3v2l4 2 7 8v2l4 2 9 4 6 8 12 11 5 5 7 6v2l5 2 7 5 8 8v2l5 2 11 8v3l5 1 6 4 5 4 3 5 9 2 7 7 10 8 10 5 2 5 9 1v-8l-5-8-4-10-2-7v-28l4-13 3-4-10-1v-1h12l-1 4-2 3-3 13-1 6v16l4 15 6 12 6 8 1 3h2v2h2v2h2v2l5 2 11 6 8 3 11 2h11l17-3 12-5 11-7 10-10 1-2h2l2-5 5-10 3-12 1-6v-12l-3-13-5-14 1-2 26 1h279l2-1-1 6-5 12-1 10v16l3 14 7 14 9 11 9 8 7 4 13 4 8 1h19l11-2 13-5 14-10 11-13 6-12 2-8v-29l-4-13-3-5v-3l3 1 1 5 3 6 2 6 2 13-1 13-1 9-4 12h-2l-1 4-1 3h-2l-2 4-2 3h-2l-2 5v3l2 7-5 5-9 1-16 1-12 2h-52l-4 1-3-1h-309l-29-1-4 2 3 3 13 8 10 5 7 3 5 5 11 6v2l9 1 7 3 8 4v2l7 2 2 3 11 2 3 1v2l756 1v180h-1414z" fill="#EAF5F9"/>
<path transform="translate(485,241)" d="m0 0h586l1 1v102l-1 1-458 1-4 1-1 9v202h323l16 4 11 6 9 7 9 12 4 10 1 5v13l-3 13-6 11-7 8h-2v2l-16 8-8 2-9 1-318 1-3 2-1 4v194l5 8 6 3 25 1h56l221-1h149l2 2v95h-587l-1-1v-157l1-6-1-6-1-447v-107z" fill="#25B3EF"/>
<path transform="translate(409,242)" d="m0 0 11 1 7 5 7 10 1 9 1 725 5 13 10 10 6 2 7 1h481l20 1 7 2 13 4 13 5 11 6 11 8 6 5 8 10 6 10 1 8-3 1-23 1-3-2 4 8 4 13v29l-3 9-6 12-11 13-11 8-12 6-7 2-8 1h-19l-11-2-10-3-11-7-9-9-8-11-6-14-2-11v-16l1-10 5-12 1-5-3 1h-278l-25-1 6 17 2 11v12l-2 12-6 15-4 6h-2l-2 4-10 10-14 8-12 4-13 2h-11l-14-3-9-4-12-7v-2h-2v-2h-2v-2h-2l-6-8-6-10-5-15-1-5v-16l2-12 3-8 3-6h-15l-19-4-15-7-12-7-11-10-8-10-8-13-5-11-5-16-2-10-1-257v-283l-1-163-5-8-8-7-5-1h-36l-10-2-10-4-8-6-7-7-4-7v-2l2-1z" fill="#E14F08"/>
<path transform="translate(484,352)" d="m0 0h2l5 12 3 9 5 13 3 8 7 16 3 9 4 9 3 9 4 10 3 12 1 83 1 16 4 10 2 7 4 7 5 9 8 10 9 8 3 1 4 4 12 7 16 5 12 3 262 2 29 1 5 1 1 2 7 1 2 5-7 2-3 2 1 2 10 1 22-1 17-5 5 1-1 4-15 6h-2l1-3h-10v3l4 2-8 1h-19l-18 1h-84l133 1v1l-9 1-318 1-3 2-1 4v194l5 8 6 3 25 1h56l221-1h149l2 2v95h-587l-1-1v-157l1-6-1-6z" fill="#1995DF"/>
<path transform="translate(409,242)" d="m0 0 11 1 7 5 4 6 2 5v491l-1 17v59l-1 91-2 1-2 5h-2l-1-5-7 1-1 1-1 8h-2l-1 26v35l2 15-1 4 2 5-1 3-2 3-2 6-9-4-5-16-1-7-2-2-3-8v-6h-3l-3-5-1-11h-2l-2-4-2-1-1 2h-4l-1-36-1-2v-159l-1-111v-62l-1 141h-1v-283l-1-163-5-8-8-7-5-1h-36l-10-2-10-4-8-6-7-7-4-7v-2l2-1z" fill="#EE790C"/>
<path transform="translate(485,241)" d="m0 0h586l1 1v102l-1 1h-60v-2h-32v1h-47v-1l-107-1-5-1v-1h77l5-1 26-1 3-3h15l-2-3-12-1-5-2-30-1-10-1v-1h8l1-3-12-1v-2l-31 2-2-1v-2l-17-1-174-1-24 1-10 1v2l-4-1v-11l-7 1v12l-6 2h-3l-2-5-1-3v-12l-6-4-4-8h-13l-1 2-3-8-4-3 1-6h2v-2h3v2l3 1h28l2-6-38-1 3-2h2l-3-4-10 1-8-3-5-2h-4v-3h-2v2l-3-1-11-1v-1l-16-1v2l-7 2-10 5-3 3h-2l-4 8h-2l-2 6-2 1-1-12v-26z" fill="#38C9F3"/>
<path transform="translate(431,255)" d="m0 0 3 3 1 9 1 725 5 13 10 10 6 2 7 1h481l20 1 7 2 13 4 11 4-1 3h-9l-2-1v-3l-5-2-15-3h-32l-2 1h-8l-3-1h-117l-31 1 3 3 11 1 2 4-1 1h-14v2l-48 1-69 1h-43l-61 1h-15l3 3 17 4 6 4 5 3 9 7 4 6 3 1 7 7 16 2h261l4-1h8l6 2v1l-75 1-23 1h-175l-25-1 6 17 2 11v12l-2 12-6 15-4 6h-2l-2 4-10 10-14 8-12 4-13 2h-11l-14-3-9-4-12-7v-2h-2v-2h-2v-2h-2l-6-8-6-10-5-15-1-5v-16l2-12 3-8 3-6h-15l-19-4-15-7-12-7-11-10-8-10-8-13-5-11-5-16-2-10-1-241 1-159 2 2v62l1 111v159l1 4 1 32-1 2 7-2 2 2v3h2l2 7 1 6 1 3h3l2 7 3 8 1 1 2 9 3 10v4l4 1 4 2 4-10v-3l-1-4 1-5-2-13v-41l2-20h2v-8l2-2h7l1 5h2l2-6h2v-150l1-18v-490z" fill="#CF3B0A"/>
<path transform="translate(484,352)" d="m0 0h1l2 6-1 6v122l4 6 5 16 5 14v3h2l6 17 4 10 5 14-1 10-3 5-6 4h-3l-4-4v-4l-4 1v11l-2-1v-5h-2v13l-1 8h-1v-14h-2l-1-7-1 28v16l4 9 3 13 4 10 10 24 4 13 6 16 4 10 4 12 1 15 1 115 2 13 3 7v3h2l2 8 4 7 7 4v6l1 3 4-1 1 4 9 7 7 1 1 5 24 8 1 1 15 1 4 1h89l51 1h34l173 1-1 2h-7v2h-5l2 7-3 1-2 5h14l3 2-7 2-13-1h-8l-4 2 73 1h63l1-3 2-1v-19l2-39h1v64h-587l-1-1v-157l1-6-1-6z" fill="#1376BF"/>
<path transform="translate(613,1078)" d="m0 0h278l1 4-3 5-2 5-1 9-1 2v18l2 11 4 10 3 5v3h2l2 5h2l4 5v2h2v2h2v2h2l-1 3-6-3-100-2h-211l-4 1-4-1-7-1-1-4 4-4h2v-3h2v-2h2v-3h2v-4h2l1-5 2-5 1-7 1-1v-24l-2-9-5-11v-2z" fill="#FCFCFC"/>
<path transform="translate(414,541)" d="m0 0 4 1 2 3 1 10 4 1 1 8 1 20 3 6 3 114v46l-1 17v59l-1 91-2 1-2 5h-2l-1-5-7 1-1 1-1 8h-2l-1 26v35l2 15-1 4 2 5-1 3-2 3-2 6-9-4-5-16-1-7-2-2-3-8v-6h-3l-3-5-1-11h-2l-2-4-2-1-1 2h-4l-1-36-1-2v-159l-1-111v-65l2 1 1 33v21l1 3 2 1 1-35 2-19 2 1 1 5v14h3l2-5 1-14 6 4 2 6v2l2 3 2 5 1 3 1 16 3 2 5 1v-29l2-39 2-8v-3l2-4v-9z" fill="#E24F07"/>
<path transform="translate(485,241)" d="m0 0h586l1 1v36l-1 3-1 17v12l-1 5-2 2h-134l-35-1-13-1v-2h10v-15h-10l-2 4-4 1h-9l-8-2-5-6-5-3 1-4 2-1 9-1 1-4-3-1v-2h-10l-15-2-2-4 6-2h11l3-2 1-3h-6l-7-3 1-4 1-1h148l2 2 7 2 22 3 8 2v-2l3-2 7 1 9 2v2h6l5 4h2l-1-4-10-7-9-4-20-2h-503l-10 2-13 7-7 6-6 9h-1l-1-8v-26z" fill="#43D7F7"/>
<path transform="translate(914,872)" d="m0 0h156l2 2v31l-2 40v14l-2-2v-14l-4 1-73-1v-3l-4 1-1 2h-32l-4-1-1 1h-46l-7-2-11-6 1-4v-2l-3-1-13 1-1 3h14l-1 6-13 1-7 2v-2h-2l-1-7v-3h-2v-2h-19l-4-2-1-2v-7l3 1 1-1 12-1 1-5v-4l-4-1-2 5-5-1-1-5 3-4 1-5 11-2-6-2-9-2-2-3 1-4h15l14 3 4 1h28l16-1 9-4-50-1-7 2h-10l-20-2-1-1-17-1h-15l-29-1-54-1v-1l5-1 133-1z" fill="#26B4F0"/>
<path transform="translate(945,1044)" d="m0 0h17l16 4 13 7 11 10 9 11 5 9 4 13v29l-3 9-6 12-11 13-11 8-12 6-7 2-8 1h-19l-11-2-10-3-11-7-9-9-8-11-6-14-2-11v-16l1-10 5-12 9-15 10-10 10-7 12-5z" fill="#112F41"/>
<path transform="translate(516,1044)" d="m0 0h20l14 3 12 6 9 7 8 8 5 8 3 3 6 16 2 11v12l-2 12-6 15-4 6h-2l-2 4-10 10-14 8-12 4-13 2h-11l-14-3-9-4-12-7v-2h-2v-2h-2v-2h-2l-6-8-6-10-5-15-1-5v-16l2-12 3-8 6-12 10-12 12-9 6-3 12-4z" fill="#112F41"/>
<path transform="translate(369,336)" d="m0 0h1l1 45v35l1 23v37l5 9 1-9 1-2 6-2 4 1v-3l3-1 1-5 4 4 3 6-1 5h-2l3 8 3 4 1 5v14l-1 1-1 13 4 2 1 2 1-14 1-4 1-55 1-9v-47l1-1 1-11 2-2h3v-2h6v2h2l1 16v14l-2 6v23l1 3 5 1 1 30 1 48v130l-1 6h-1l-2-72-3-6-1-20-1-7-4-2-1-10-2-3h-2l1 4v9l-3 5 1 2-2 8-2 39-1 29h-5l-4-2-1-17-3-6-1-4-2-3h2l-4-7-3-2-1 13-3 5h-3l-1-2v-14l-1-3-2 18-1 33-1 2-3-1-1-3v-31l-1-23h-1l-1 143h-1v-158l1-93z" fill="#EE6A07"/>
<path transform="translate(484,788)" d="m0 0h1l2 10 8 26 5 8 2 8 2 6 4 2 2 6 3 1 1 7h2v5l3 1 3 14h2l5 10 4 3 6 11 2 4h2l4 4v3l3 1v2l4 2 6 5 3 1 4 4 8 4 7 3 7 2 10 1 5 3 12-1 4 5 5 2v2h-7l-8-1h-2v5l1 5-1 3 4 1h46l81 2v1h-254l-1-1v-157l1-6-1-6z" fill="#1269AD"/>
<path transform="translate(485,241)" d="m0 0h586l1 1v34h-3l-6-8-10-7-9-4-20-2h-503l-10 2-13 7-7 6-6 9h-1l-1-8v-26z" fill="#E5F1F6"/>
<path transform="translate(586,1077)" d="m0 0 26 1v1h-24l4 8 2 5 2 9v24l-1 1-1 7-4 10h-2v4h-2v3h-2v2h-2v3l-5 4v3l10 1 4 1 2-1h210l100 2 6 3 1-2h-2v-2h-2v-2h-2l-4-5v-2h-2l-2-5h-2l-6-12-2-6-2-11v-18l1-2 1-9 5-10 2-5 1 4-4 9-2 5-1 10v16l3 14 7 14 9 11 9 8 7 4 13 4 8 1h19l11-2 13-5 14-10 11-13 6-12 2-8v-29l-4-13-3-5v-3l3 1 1 5 3 6 2 6 2 13-1 13-1 9-4 12h-2l-1 4-1 3h-2l-2 4-2 3h-2l-2 5v3l2 7-5 5-9 1-16 1-12 2h-22l-13-2-8-4v3l-5 2-2-1-1-4-5 3-1-3-3 1-1 3h-354l-11 2h-24l-11-2-4-1h-62l-32-1-55-1-48-2h-10l-4-2 4-2 33-2 43-2 64-1 12-1h34l2-1v-2h-2v-2h-2v-2h-2l-6-9-4-8-4-13v-28l4-13 3-4-10-1v-1h12l-1 4-2 3-3 13-1 6v16l4 15 6 12 6 8 1 3h2v2h2v2h2v2l5 2 11 6 8 3 11 2h11l17-3 12-5 11-7 10-10 1-2h2l2-5 5-10 3-12 1-6v-12l-3-13-5-14z" fill="#D4E5EE"/>
<path transform="translate(1071,905)" d="m0 0h1v64h-207v-1l-77-1h-33l-8-3v-2h3v-2l11-1 1-2-4-1-2-5-3-3-6-3-72-1v-1l28-1 51 1h34l173 1-1 2h-7v2h-5l2 7-3 1-2 5h14l3 2-7 2-13-1h-8l-4 2 73 1h63l1-3 2-1v-19z" fill="#1485CE"/>
<path transform="translate(404,239)" d="m0 0 15 1 8 4 8 9 2 4 1 32 1 702 3 9 9 11 6 3 11 2h223l274-1 6 1v2l-6 1h-501l-11-2-8-7-6-7-4-11-1-725-1-9-7-10-6-4-11-1h-137v-2l3-1z" fill="#3E2820"/>
<path transform="translate(563,928)" d="m0 0 5 2 12 6 12 4 18 1 4 1h60l1 1 72 1 9 5 3 7 3 1-1 3h-11v2h-3v2l8 2h38l76 1-4 2h-126l-81-2h-46l-4-2v-7l-1-4 3-3 8 1 7 1-1-2-5-2-3-4-12 1-5-3-10-1-9-3-16-8z" fill="#1376BF"/>
<path transform="translate(515,244)" d="m0 0h513l-3 6-14 1h-14l-3-1h-31l-32 1h-393l-11-1-11 2-9 3-4 3-6-1-1-1h-8l-1-4 5-5 19-2z" fill="#FCFCFC"/>
<path transform="translate(234,191)" d="m0 0h848l11 3 10 5 6 4v2h2l6 9 4 9v147l-5 10-5 6h-2v2l-10 6-9 2h-432v111h275l12 1 1 1 9 1 7 3 10 3 14 8 3 2v2h2l-1 2-12-8-13-6-13-4-12-2-282-1-1-1-1-112 1-2 428-1 10-1 12-6 5-5 5-8 2-6v-140l-4-11-6-9-7-6-13-6-7-1h-853l-9 3-6 4-4 5-2 5v13l4 9 4 5-4-2-2-4h-2l-2-5-4-2v-6l-1-5h3l-1-8 4-8h2l4-3h3v-2l5 1 7-2z" fill="#D4E5EE"/>
<path transform="translate(985,939)" d="m0 0h6l2 2-1 1 76 1 1 9 1 11-4 4-15 1h-48l-76-1 4-3 3-1h11l12 1 4-1-7-1h-10l3-6 2-1-1-7h5v-2l7-1-56-1v-1l35-1h10l2-1 3 1h27z" fill="#1A96E0"/>
<path transform="translate(627,558)" d="m0 0h304l16 4 11 6 9 7 9 12 4 10 1 5v13l-3 10-2-1-1-12-5-12-8-14-11-10-14-7-11-3-87-1h-107l-73-1-33-1-13-2-2-2z" fill="#E5F1F6"/>
<path transform="translate(991,530)" d="m0 0 4 1 8 7v2h2l6 8v2h2l6 9v3h2l3 8 5 11 4 19v23l-1 2-1 9-3 9-4 10-5 10h-2l-1 4-1 2h-2v2h-2l-2 5-9 9-5 2v2h-2v2l-12 8-13 5-7 3-8 2-25 2h-268l-2-1v112h428l12 3 10 6 7 8 5 10 1 3v143l-4 8-3 5h-2v2l-5 4-8 4-9 2h-121-4v-2l9-1h116l8-2 10-5 7-8 4-9v-138l-4-12-6-8-9-6-11-4-432-1v-116h73l218-1 16-4 15-6 13-9h2v-2l8-7 7-7 1-2h2l2-5 5-7 4-8 4-12 3-16 1-12-2-18-5-16-5-12-7-11-8-10-9-9z" fill="#D4E5EE"/>
<path transform="translate(845,565)" d="m0 0h81l16 5 10 6 11 10 9 16-1 3-2-3v6l-9 10-7 5-7 3-10 2v2h-8l3-1v-2l4-1-4-4 1-5 5-1v-2l10-4 4-7h-5-3l-5-1v-2h-2l-1 2-6-2v-7l5-2 2-2-1-4-4-1-3 1h-11l-3-2-11-1-7-3-15-1v-1l7-1 1-3 3 1 4 1-2-4-32-2-74-1v-1h86l-29-1z" fill="#37C8F3"/>
<path transform="translate(484,352)" d="m0 0h1l2 6-1 6v122l4 6 5 16 5 14v3h2l6 17 4 10 5 14-1 10-3 5-6 4h-3l-4-4v-4l-4 1v11l-2-1v-5h-2v13l-1 8h-1v-14h-2l-1-7-1 28v16l1 3-3-1z" fill="#1486CF"/>
<path transform="translate(979,1026)" d="m0 0 5 2v3h11l3-1 11 6 11 8 6 5 8 10 6 10 1 8-3 1-23 1-6-4-7-8-2-5-9-8-11-6-18-5h-13l-19 3-10 3-4 2 2-5v-3l-8-1v-2l-4 1-5-2v-1h63l11-1h7l10-3h-7l-7 1 2-3z" fill="#EE780C"/>
<path transform="translate(1e3 1156)" d="m0 0 4 1-1 5 12 1 39 1h31l8 1 23 1h18 3 5l10 4v3l-34 2-38 2-1 1-101 1-5-1v2l-11 1-4-2 21-3h16l2-4 3-1-3-7-2-2 4-4z" fill="#E9F4F8"/>
<path transform="translate(417,1029)" d="m0 0h7l5 6 5-2 1-2 8 3 8 1 4 2h62l-2 4-4 2-9 2-8 4-7 4-5 5-5 3-3 5-4 2-2 5-4 4-7-1-2-4-12 1-10-4-2-3 1-1h11l3 3 5 1v-7l-6-2-1-4 4-4 3 3 1 5 6-2 5-5 2-3-3-2h-9l-5 3h-4v-3l-5 1-3-3-6-1-4-1-2 1-7-6-2-4v-4h2z" fill="#E14E08"/>
<path transform="translate(517,1037)" d="m0 0h17l5 4 17 4 6 4 5 3 9 7 4 6 3 1 7 7 16 2h261l4-1h8l6 2v1l-75 1-23 1h-175l-25-1-5-3-6-9-8-8-9-6-12-5-11-2h-20l-11 3-10 4-9 6-6 5-8 10-4 6h-15l-19-4-15-7-4-3 9 2 7 4 14 3 12 1 7 1 5-6 5-5 3-5 7-5h2l1-3 7-4 10-5 10-2z" fill="#CF5319"/>
<path transform="translate(914,872)" d="m0 0h156l2 2v30l-4-1-6-8-8-7-16-8-8-2-106-1h-19l-52-1-12-1v-1l17-1z" fill="#D4E5EE"/>
<path transform="translate(914,1018)" d="m0 0h31l20 1 7 2 13 4 11 4-1 3h-9l-2-1v-3l-5-2-15-3h-32l-2 1h-8l-3-1h-211l-139-1-45-1v-1l263-1z" fill="#CC501B"/>
<path transform="translate(951,1093)" d="m0 0 8 1 7 4 4 5 2 6-1 10-4 6-5 4-12 1-8-3v-2h-2l-4-6-1-11 3-7 5-5z" fill="#FBFCFC"/>
<path transform="translate(525,1093)" d="m0 0 8 1 5 3 6 7 1 2v12l-4 7-5 4-12 1-6-2-5-4-4-7v-11l3-6 6-5z" fill="#FBFCFC"/>
<path transform="translate(431,255)" d="m0 0 3 3 1 11-1 576-1 116h-1l-1-19v-175l1-18v-490z" fill="#CC501B"/>
<path transform="translate(486,242)" d="m0 0h333l16 1v1l-320 1-4 1-19 1-1 3-3 3 2 2h6l4 2 6-1-1 4-8 5-6 5-3 5h-3l-1-29z" fill="#E9F4F8"/>
<path transform="translate(368,591)" d="m0 0 2 2v62l1 111v87l-1 5v131l6 24 3 8v2l4 1 1 3-2 4-7-14-5-16-2-10-1-241z" fill="#CC511B"/>
<path transform="translate(485,241)" d="m0 0h586l1 1v34h-3l-6-8-10-7-6-3 4-1 9 6 6 5 4 4v-30l-251 1h-333l-1 4v28l2 1-3 3-1-8v-26z" fill="#D4E5EE"/>
<path transform="translate(979,1026)" d="m0 0 5 2v3h11l3-1 2 1v4l6 1-1 2-12 3h-4l1 3 2 1-3 1 10 1-1 3-5 2-5-3-12-2-14-4h-13l-19 3-10 3-4 2 2-5v-3l-8-1v-2l-4 1-5-2v-1h63l11-1h7l10-3h-7l-7 1 2-3z" fill="#EE6A07"/>
<path transform="translate(725,874)" d="m0 0h116l12 1 52 1h25l100 1v1l-147 1-16 2-1 1h-10l-20-2-1-1-17-1h-15l-29-1-54-1v-1z" fill="#2FBFF2"/>
<path transform="translate(967,874)" d="m0 0h102l1 1v26l-8-6-8-7-16-8-8-2-8-1-66-1v-1z" fill="#E8F3F8"/>
<path transform="translate(580,1155)" d="m0 0 5 3h3l2-2 4 5 225 1h37l5 1h33l1-2h3v-4l4 1 2 4h2v2h2v2h2l-1 3-6-3-100-2h-211l-4 1-4-1-7-1-1-4z" fill="#EAF5F9"/>
<path transform="translate(548,993)" d="m0 0h60l6 1h27l19-1h13l3 2-1 3h-63l-34 1h-14l-21-1z" fill="#0E313F"/>
<path transform="translate(951,1093)" d="m0 0 8 1 7 4 4 5 2 6-1 10-4 6-5 4-12 1-8-3v-2h-2l-4-6-1-11 3-7 5-5zm5 3v3h-9l-2 4 1 7-3 1h2v6l1 5 1 3 5-2 5 1 1-3h7l4-2 1-2v-10l-2-5-7-6z" fill="#EAF5F9"/>
<path transform="translate(501,671)" d="m0 0 2 1 4 11 4 13 6 16 4 10 4 12 1 15 1 115 1 13h-1l-2-10-2-54v-17l1-14v-26l-1-7-3-1-2-5v-8h-2l-2-26-4-9-6-18-3-8z" fill="#1486CF"/>
<path transform="translate(485,488)" d="m0 0h2l3 4 4 18 5 13-1 4v14l-1 2h-5l-1 14h-1l-1-13-2-2-1-4v-37z" fill="#1476BF"/>
<path transform="translate(658,788)" d="m0 0h1l3 15-2 3v7l4 6 1 1 379 1v1h-386z" fill="#EAF5F9"/>
<path transform="translate(578,228)" d="m0 0h51v2h27l3-2h15l2 2v3l-32 1h-33l-32-1z" fill="#0E313F"/>
<path transform="translate(516,1044)" d="m0 0h20l14 3 12 6 9 7 8 8 6 9v3l-5-2-4-8-5-4-5-5-9-6-12-5-9-2h-23l-15 5-10 8-5 3-10 14-3 3-1-2 3-7 9-11 12-9 6-3 12-4z" fill="#3E2820"/>
<path transform="translate(606,763)" d="m0 0h1l1 98 5 8 6 3 25 1h214v1l-139 1h-98l-9-3-5-6-2-10z" fill="#137BC3"/>
<path transform="translate(404,239)" d="m0 0 10 1v2l-5 1h-137v-2l3-1z" fill="#382924"/>
<path transform="translate(234,191)" d="m0 0h77l29 1v1l-111 1-9 3-6 4-4 5-2 5v13l4 9 4 5-4-2-2-4h-2l-2-5-4-2v-6l-1-5h3l-1-8 4-8h2l4-3h3v-2l5 1 7-2z" fill="#D4E5EE"/>
<path transform="translate(945,1044)" d="m0 0h17l16 4 13 7 11 10 9 11 1 1v5l-5-5-1-3-4-2-5-8-9-4-2-4-4-2-16-6-5-1h-12l-16 3-13 5-5 5-4 3h-2l-2 4-4 5h-2l-2 6-4 3 1-5 7-10 8-8 10-7 12-5z" fill="#3D2820"/>
<path transform="translate(484,629)" d="m0 0 2 2 1 8h2l2 7v6l-2-1-1 5 3 3 1 8-2 3-4-2v98l-1 16h-1z" fill="#1269AE"/>
<path transform="translate(738,994)" d="m0 0h128l1 3h-131z" fill="#0E313F"/>
<path transform="translate(1044,242)" d="m0 0h8l9 2 5 2 1 1v6h2v9l-7-1-6-4-6-3-9-1v-3l-5-1v-4l-2-1z" fill="#FCFCFC"/>
<path transform="translate(708,228)" d="m0 0h66l2 1 13 1v1l-17 1-1 1h-64l-2-1v-2z" fill="#0E313F"/>
<path transform="translate(658,484)" d="m0 0h1l1 18 1 3 278 1 2 2-283-1z" fill="#EAF5F9"/>
<path transform="translate(1014,1166)" d="m0 0h31l-4 2v4h-4v2h-2v2h-28l-2-1 1-5 7-3z" fill="#D4E5EE"/>
<path transform="translate(949,1042)" d="m0 0h13l21 6 9 6 8 7 2 4-7-6-11-7-10-4-12-3h-17l-15 3-14 7-13 12-8 12h-3l-5-2 9-6 9-11 8-6 3-3 7-4 17-4z" fill="#CC501B"/>
<path transform="translate(1115,894)" d="m0 0h1l1 24-1 37-1 2-5-2v-14l3-2 1-11-4-1 2-5-1-8v-11l2-8z" fill="#0E303F"/>
<path transform="translate(646,326)" d="m0 0 9 3v5l2 1-12 2-8 3-7 1h-18l-1-2 2-3 7 1 10-1 4 1 5-2 1-4h3l1-3h2z" fill="#1A96E0"/>
<path transform="translate(474,993)" d="m0 0h10l5 2h15l2 1h7l3-1h13l5 1v1l-17 1-9 2h-16l-20-2-2-1 1-3z" fill="#0E313F"/>
<path transform="translate(898,1157)" d="m0 0 4 1 2 4h2v2h2v2h2l-1 3-6-3-60-1-24-1 1-2h36l5 1h33l1-2h3z" fill="#EAF5F9"/>
<path transform="translate(484,1055)" d="m0 0m-1 1m-1 1m-2 1h2l-2 5-8 10-4 6h-15l-19-4-15-7-4-3 9 2 7 4 14 3 12 1 7 1 5-6 5-5 3-5z" fill="#CC4F1A"/>
<path transform="translate(655,712)" d="m0 0h2v112l-2-2v-103l1-3-3-1z" fill="#0E313F"/>
<path transform="translate(1121,225)" d="m0 0h1l1 77 1 2v15l-1 33-1 11h-1z" fill="#EAF5F9"/>
<path transform="translate(1110,319)" d="m0 0 5 1 1 16v16l-2 1-1-13-1 10h-4l-1-19 1-2 1-9z" fill="#0E313F"/>
<path transform="translate(1039,875)" d="m0 0h18l5 1 3 1 1 2 3 1-1 5-5 1-10-2-11-6z" fill="#FDFDFD"/>
<path transform="translate(951,1093)" d="m0 0 8 1 7 4 4 5 2 6-1 10-4 6-5 4-12 1-8-3v-2h-2l-4-6-1-11 3-7 5-5zm-4 3-6 4-4 5v13l2 4h2v2l6 4h12l8-6 3-5v-10l-2-5-7-6z" fill="#D4E5EE"/>
<path transform="translate(1071,905)" d="m0 0h1v64h-46l1-2h39l1-3 2-1v-19z" fill="#1486CF"/>
<path transform="translate(216,193)" d="m0 0 3 1-1 4-7 6-3 7v13l4 9 4 5-4-2-2-4h-2l-2-5-4-2v-6l-1-5h3l-1-8 4-8h2l4-3h3z" fill="#E1EEF4"/>
<path transform="translate(525,1093)" d="m0 0 8 1 5 3 6 7 1 2v12l-4 7-5 4-12 1-6-2-5-4-4-7v-11l3-6 6-5zm-5 3-4 2v2h-2v2h-2l-2 5v9l4 7h2v2l5 3h13l7-5 3-9-1-8-2-4h-2v-2h-2v-2l-3-2z" fill="#D4E5EE"/>
<path transform="translate(1046,272)" d="m0 0 11 4v8h-2v3l-5-1-6-4-8-3 1-5z" fill="#38C9F4"/>
<path transform="translate(1046,880)" d="m0 0 5 2 9 3h6l4-2v18l-8-6-8-7-11-6z" fill="#E6F2F7"/>
<path transform="translate(990,525)" d="m0 0h2v3l6 1v4l3-1 4 3v3l4 1 3 4 5 1v3h-2v2l7 7 2 4-1 7-2-1v-4h-2l-5-9-1-3h-2l-6-8v-2h-2v-2l-4-2-5-5-3-1v-2h-2z" fill="#EAF5F9"/>
<path transform="translate(1072,241)" d="m0 0h1l1 18v9l2-2h3l3 2 5 13v6l-3 1-2-3v-6h-2l-1 2-2-1 1-4 2-1-3-2-2 6-2-1-1-3z" fill="#0E303F"/>
<path transform="translate(1118 1e3)" d="m0 0 2 1v8l-4 7-6 3-8 1-1 1-11-1 2-2 7-1 9-5 4-2v-2h2l2-5z" fill="#EAF5F9"/>
<path transform="translate(409,242)" d="m0 0 11 1 1 2h-143l-1 4h-2l-2-5 2-1z" fill="#CC511C"/>
<path transform="translate(963,869)" d="m0 0h9l7 1h25l29 1v1l-71 1h-41v-1l24-1 1-1h14z" fill="#0F4663"/>
<path transform="translate(538,901)" d="m0 0 9 5v6l1 3 4-1 1 4 9 7 7 1 1 5 24 8 1 2-9-2-13-5-9-5-7-3-7-6-3-3v-3l-4-2-3-6z" fill="#1481CA"/>
<path transform="translate(1082,326)" d="m0 0 4 2-2 7-1 1v5l3 6-1 4-1 1h-5l-3-9 2-2-1-7-1-4 5-3z" fill="#0E313F"/>
<path transform="translate(652,399)" d="m0 0h1v49l-1 17-4-3v-13l3-3v-21l-2-9 1-13z" fill="#0E313F"/>
<path transform="translate(511,1065)" d="m0 0 3 1-4 6-4 2-3 4-8 2h-7v-2h2l2-5 6-4h7z" fill="#0E313F"/>
<path transform="translate(530,1096)" d="m0 0 5 1 2 1v2h2v2h2l3 9-1 8-2 4-4 2-1-8 2-1-2-4 1-4-1-6-6-2z" fill="#EAF5F9"/>
<path transform="translate(652,718)" d="m0 0h1v51l-3-3h-1v-29l2-3v-12z" fill="#0E313F"/>
<path transform="translate(649,780)" d="m0 0 4 3h-3l1 2 1 16-1 2-1 4-2-1v-5l-4-1v-15l1-4z" fill="#0E313F"/>
<path transform="translate(820,972)" d="m0 0h46v3l-6 1h-23l-3-1-15-1z" fill="#0E313F"/>
<path transform="translate(906,547)" d="m0 0h24l-1 5-2 1h-12l-14-2v-3z" fill="#0E313F"/>
<path transform="translate(933,1046)" d="m0 0 2 1-4 4-11 4-5 5-4 3h-2l-2 4-4 5h-2l-2 6-4 3 1-5 7-10 8-8 10-7z" fill="#3C2821"/>
<path transform="translate(656,392)" d="m0 0 2 2-1 3v82h-1l-2-83v-2h2z" fill="#0F4662"/>
<path transform="translate(580,1155)" d="m0 0 5 3h3l2-2 4 5 17 1v2h-19l-4 1-4-1-7-1-1-4z" fill="#E9F4F8"/>
<path transform="translate(521,254)" d="m0 0h28l-1 2h-32v2l-7 2-10 5-3 3h-2l-4 8h-2l-2 6-2 1 1-6 8-10 8-6 13-6z" fill="#3DCFF5"/>
<path transform="translate(884,972)" d="m0 0h14l14 1 33-1 2 2-16 1-5 2h-11l-1-1-31-2z" fill="#0E313F"/>
<path transform="translate(916,348)" d="m0 0h78l-2 2h-11l-18-1v2l-16-1h-31z" fill="#0E313F"/>
<path transform="translate(544,1130)" d="m0 0 3 1 1 4-3 6-7 3-5-1 1-4 5-6z" fill="#0E313F"/>
<path transform="translate(1092,818)" d="m0 0 4 1 8 4 2 5-2 1-6-3-12-3-41-1v-1h47z" fill="#EAF5F9"/>
<path transform="translate(829,893)" d="m0 0 5 1 1 14-3 3-4-2-1-2v-10z" fill="#26B4F0"/>
<path transform="translate(953,642)" d="m0 0 5 1-1 4-15 6h-2l1-3-10-1v-1l11-3z" fill="#1A96E0"/>
<path transform="translate(529,228)" d="m0 0h17l5 1-1 2-3 1-15 1h-14l-2-4h9z" fill="#0E313F"/>
<path transform="translate(940,228)" d="m0 0h6l1 3h14l2-2 1 4h-30l-17-2v-1l11-1z" fill="#0E313F"/>
<path transform="translate(1120,370)" d="m0 0 1 4v4l-1 3-5 3-2 6-2 1-1 4h-12l2-3 7-4h2v-2l5-5 4-6z" fill="#EAF5F9"/>
<path transform="translate(1094,192)" d="m0 0h8l7 7 2 1v2l5 2v4l-5-1v-2h-2v-2l-5-2-8-5-5-2z" fill="#EBF5F9"/>
<path transform="translate(972,583)" d="m0 0 4 4 4 10 1 5v13l-3 10-2-1-1-12-5-12-1-4 3 3 5 12 1 6 1-13-4-13-3-6z" fill="#D4E5EE"/>
<path transform="translate(987,1145)" d="m0 0 5 1 8 5v3h-2l-1 3-9-3-2-1z" fill="#0E303F"/>
<path transform="translate(994,228)" d="m0 0h28v3l-4 2-22-1-3-2z" fill="#0E313F"/>
<path transform="translate(886,1074)" d="m0 0 4 2v3l-80-1v-1l72-1z" fill="#EF7A0C"/>
<path transform="translate(688,1010)" d="m0 0h48v3h-10l-1-1-3 1-2-1h-10l-7 1-12-1z" fill="#0E303F"/>
<path transform="translate(605,335)" d="m0 0h2v5h2l-1 4-1 2-2 30h-1l-1-24-2-6 2-5 1-4z" fill="#38C9F4"/>
<path transform="translate(871,1074)" d="m0 0h8l6 2v1h-75v-1l57-1z" fill="#CC511C"/>
<path transform="translate(984,994)" d="m0 0 9 1 1 5-1 1h-13l-3-2 1-3z" fill="#0E313F"/>
<path transform="translate(658,710)" d="m0 0 8 1-2 5-2 2-1 13-2 6h-1z" fill="#EAF5F9"/>
<path transform="translate(899,868)" d="m0 0 7 1 2 1h12l9-1 13 1 3 2h-40l-11-1 4-2z" fill="#0E303F"/>
<path transform="translate(863,894)" d="m0 0 3 1 2 6-1 9h-5l-2-2 1-6z" fill="#1A96E0"/>
<path transform="translate(958,342)" d="m0 0h23l30 1v2h-34v-1l-19-1z" fill="#22ABE9"/>
<path transform="translate(834,868)" d="m0 0h28l3 3h-36l2-2z" fill="#0E313F"/>
<path transform="translate(512,1102)" d="m0 0h2l1 4 1 8 2 5 1 2h-3v2h-2l-4-7v-9z" fill="#EAF5F9"/>
<path transform="translate(658,396)" d="m0 0h5l-3 17-1 34h-1z" fill="#EAF5F9"/>
<path transform="translate(1116,230)" d="m0 0 1 4-1 22-1-2-4-2v-13h3z" fill="#0E313F"/>
<path transform="translate(563,928)" d="m0 0 5 2 12 6 12 4 18 1 4 2-25-1-9-3-16-8z" fill="#147CC5"/>
<path transform="translate(1071,905)" d="m0 0h1v52h-2l-1-13z" fill="#1380C8"/>
<path transform="translate(970,1008)" d="m0 0 9 2 7 2-1 3h-10l-10-5v-1z" fill="#0E313F"/>
<path transform="translate(1e3 658)" d="m0 0 4 1 1 8-2 3h-4v-2h-2l-1-7 1-2z" fill="#0E313F"/>
<path transform="translate(616,295)" d="m0 0 8 2 1 2h-2v4h-9l-3-3 1-4z" fill="#26B4F0"/>
<path transform="translate(982,642)" d="m0 0h4l1 2v7l-4 6-3-1v-7z" fill="#0E313F"/>
<path transform="translate(931,559)" d="m0 0 10 1 12 5 12 8 7 8v2h-2l-5-5v-3l-5-2-3-3-3-1v-2l-4-1-10-4-9-2z" fill="#D4E5EE"/>
<path transform="translate(1019,1135)" d="m0 0 4 1-1 11h-2l-1 2h-4-2l1-4 1-3h2l1-6z" fill="#EAF5F9"/>
<path transform="translate(1052,242)" d="m0 0h18v19h-1v-8h-2l-1-6-5-2-9-2z" fill="#EAF5F9"/>
<path transform="translate(974,1022)" d="m0 0 6 1 16 6-1 3h-9l-2-1v-3l-5-2-3-1v-2z" fill="#D55B17"/>
<path transform="translate(372,654)" d="m0 0 4 1v14l-4 1-1-1v-14z" fill="#EF6A07"/>
<path transform="translate(380,993)" d="m0 0h3l5 8-2 9h-2l-4-10z" fill="#E24F08"/>
<path transform="translate(581,303)" d="m0 0h12l1 4-2 2h-10l-2-2z" fill="#38C9F4"/>
<path transform="translate(966,511)" d="m0 0 12 3v2h3v4h2v2l-6-2-5-3-10-3-1-2z" fill="#EAF5F9"/>
<path transform="translate(976,627)" d="m0 0 2 1-6 11-7 8h-2v2l-13 7-3-1 12-7h3l2-4h2l2-4 5-7z" fill="#1380C8"/>
<path transform="translate(471,1049)" d="m0 0 7 4 4 5-6 3-3-3-3-1-1-5z" fill="#CF3B0A"/>
<path transform="translate(620,981)" d="m0 0h20v1h-10v2h14v2h-17l-4-2 2-1-5-1z" fill="#0E313F"/>
<path transform="translate(207,228)" d="m0 0 1 4h2l4 5 2 1v2l4 1-4 4h-3l-2-5-3-2-1-4-1-2z" fill="#EAF5F9"/>
<path transform="translate(1016,1139)" d="m0 0 1 3h-2l-1 4-1 3h-2l-2 4-2 3h-2l-2 5-4 1 6-8 7-9zm-18 23m-1 1 3 1-2 5-3-1v-2h2z" fill="#D9E8F0"/>
<path transform="translate(510,1081)" d="m0 0 6 1 1 5h-2v2l-5 1-4-3 2-5z" fill="#0E313F"/>
<path transform="translate(607,861)" d="m0 0 2 1 4 7 6 3 25 1v1h-28l-6-4-3-4z" fill="#1271B7"/>
<path transform="translate(1062,341)" d="m0 0h5v2l3 1h-46v-1l17-1h17z" fill="#26B4F0"/>
<path transform="translate(1071,868)" d="m0 0 3 1 1 4-4 1-1-1-37-1-1-3 6 1h33z" fill="#0E3343"/>
<path transform="translate(1027,210)" d="m0 0 5 1-2 2h-2l-1 2h-15l-1-3z" fill="#0E313F"/>
<path transform="translate(1047,1020)" d="m0 0h38v1l-16 2-22-2z" fill="#EAF5F9"/>
<path transform="translate(1078,985)" d="m0 0 6 4-1 4h-8l-2-4h2v-2h3z" fill="#0E313F"/>
<path transform="translate(563,926)" d="m0 0h6l1 5 24 8 1 2-9-2-13-5-10-6z" fill="#1486CF"/>
<path transform="translate(991,691)" d="m0 0h2l-2 6-2 2-11 3v-3l9-5z" fill="#EAF5F9"/>
<path transform="translate(1104,369)" d="m0 0 1 2 4 1-3 6 2 1-4 3-3-1 1-7v-4z" fill="#0E303F"/>
<path transform="translate(995,1176)" d="m0 0m-12 0h9l3 2-12 1-5-1v2l-11 1-4-2z" fill="#EAF5F9"/>
<path transform="translate(1019,662)" d="m0 0 3 3-2 5-3 1-2 3-6 1 2-4h2v-2h2l2-6z" fill="#EAF5F9"/>
<path transform="translate(975,1046)" d="m0 0 9 3 11 7 7 7-1 2-10-9-16-8z" fill="#CC511C"/>
<path transform="translate(1057,874)" d="m0 0h12l1 1v8l-1-3-4-1v-2h-7z" fill="#EAF5F9"/>
<path transform="translate(1027,606)" d="m0 0h1v15h-4v-13h3z" fill="#0E313F"/>
<path transform="translate(1006,678)" d="m0 0 2 2v3h-3l-1 5h-6l-3 1v-2l8-6z" fill="#EAF5F9"/>
<path transform="translate(902,1010)" d="m0 0h25l-4 2-1 1h-5l-3-2v2h-5l-7-2z" fill="#0E313F"/>
<path transform="translate(636,704)" d="m0 0 7 2-7 7-4-1 2-4z" fill="#0E313F"/>
<path transform="translate(278,229)" d="m0 0h3v2l3 1h-2l-1 5-5 1 2-1v-2h-4l1-4z" fill="#0E303F"/>
<path transform="translate(803,1010)" d="m0 0h31v1l-12 1-6 1-2-1h-10z" fill="#0E313F"/>
<path transform="translate(391,209)" d="m0 0h12v3l-1 1h-8l-4-1z" fill="#0E313F"/>
<path transform="translate(1083,917)" d="m0 0 3 3-1 5-5 1-1-1v-5z" fill="#0E313F"/>
<path transform="translate(550,914)" d="m0 0h2l1 4 10 8v2l-4-1-7-6-2-4-2-2z" fill="#147FC8"/>
<path transform="translate(262,248)" d="m0 0h5v3 3l4 1v4h-3v-2l-2-1-1-2-3-1z" fill="#EAF5F9"/>
<path transform="translate(993,1020)" d="m0 0h17v1h-8l-1 3-4 1-4-2z" fill="#EAF5F9"/>
<path transform="translate(291,272)" d="m0 0h6l3 2v3l-6 1-3-3z" fill="#EAF5F9"/>
<path transform="translate(341,228)" d="m0 0h13l1 3h-15z" fill="#0E313F"/>
<path transform="translate(409,1072)" d="m0 0 4 1-1 5-5 1-2-2 1-4z" fill="#EAF5F9"/>
<path transform="translate(385,948)" d="m0 0 1 3 4 1-1 5h-6l-1-3z" fill="#CF3B09"/>
<path transform="translate(905,964)" d="m0 0h9l1 1 11 1v1h-23z" fill="#1A96E0"/>
<path transform="translate(869,974)" d="m0 0h14l-1 4-8-1-5-2z" fill="#0E313F"/>
<path transform="translate(967,1072)" d="m0 0 4 2 2 5-4 2-3-3z" fill="#0E313F"/>
<path transform="translate(933,1046)" d="m0 0 2 1-4 4-11 3 5-5z" fill="#372924"/>
<path transform="translate(485,630)" d="m0 0 3 1 2 5 3 14h-2l-2-5v-6h-2z" fill="#147AC3"/>
<path transform="translate(1e3 1133)" d="m0 0 3 1 1 5-2 5-4 1z" fill="#0E313F"/>
<path transform="translate(900,1064)" d="m0 0 2 1-7 8-5 2 2-4h3l-1-3 3-3z" fill="#EF6A07"/>
<path transform="translate(390,1042)" d="m0 0 3 2h3l2 3-1 3 3 1 2 4-4-2-8-9z" fill="#CE531B"/>
<path transform="translate(454,994)" d="m0 0h9l1 3-2 1h-6l-2-1z" fill="#0E313F"/>
<path transform="translate(599,942)" d="m0 0h9l8 1v1l-12 2-5-3z" fill="#1476BF"/>
<path transform="translate(1072,874)" d="m0 0h1l1 26 2 3-3 1-1-2z" fill="#0E313F"/>
<path transform="translate(605,559)" d="m0 0h6l6 2 9 1v1h-14l-7-3z" fill="#3DCFF5"/>
<path transform="translate(231,209)" d="m0 0h11l-1 3h-12z" fill="#0E313F"/>
<path transform="translate(931,554)" d="m0 0h7l4 2-1 2-5-1-6 1v-2l-2-1z" fill="#0E313F"/>
<path transform="translate(1042,256)" d="m0 0 9 3 9 6-3 1-7-5-7-3z" fill="#44D8F8"/>
<path transform="translate(548,1066)" d="m0 0 4 1 1 4-2 2-4-1v-5z" fill="#0E313F"/>
<path transform="translate(415,1065)" d="m0 0 9 2 8 5-3 1-14-7z" fill="#CC511C"/>
<path transform="translate(492,268)" d="m0 0 1 3-3 5h-2l-2 6-2 1 1-6z" fill="#3ED1F6"/>
<path transform="translate(1115,211)" d="m0 0h3v3l4 2-1 7-2-2-4-8z" fill="#EAF5F9"/>
<path transform="translate(563,928)" d="m0 0 5 2 11 6-4 1-11-6z" fill="#1476BF"/>
<path transform="translate(502,1053)" d="m0 0h3l-2 6-4-1-2-3z" fill="#0E313F"/>
<path transform="translate(886,1074)" d="m0 0 4 2v3h-9l1-4z" fill="#EF730A"/>
<path transform="translate(980,618)" d="m0 0 3 1v3h2l-1 4-1 2h-3l-1 2 1-4 1-5z" fill="#0E313F"/>
<path transform="translate(389,1050)" d="m0 0h2l3 6-1 1h-5v-6z" fill="#EAF5F9"/>
<path transform="translate(376,523)" d="m0 0h1l1 6v8l-2 3-1-12z" fill="#EF7A0C"/>
<path transform="translate(375,232)" d="m0 0 3 1 3 2h-21v-1l12-1z" fill="#0E313F"/>
<path transform="translate(947,1040)" d="m0 0h8l4 2-16 1z" fill="#EF790B"/>
<path transform="translate(499,1010)" d="m0 0h13v2l-11 1z" fill="#0E313F"/>
<path transform="translate(1022,1115)" d="m0 0h1l1 12-3 3v-9z" fill="#EAF5F9"/>
<path transform="translate(920,1058)" d="m0 0 2 2-4 5h-3l-1-4z" fill="#0E313F"/>
<path transform="translate(374,1032)" d="m0 0 4 1v6h-4z" fill="#EAF5F9"/>
<path transform="translate(1033,608)" d="m0 0 2 1v2l3 1-2 4h-2l-1 2z" fill="#EAF5F9"/>
<path transform="translate(957,572)" d="m0 0 6 2 1 4-7-1z" fill="#FCFCFC"/>
<path transform="translate(389,1068)" d="m0 0 4 1-1 5-3 1-2-5z" fill="#EAF5F9"/>
<path transform="translate(1054,888)" d="m0 0 4 2 8 8-1 2-8-7z" fill="#3CCEF5"/>
<path transform="translate(1030,606)" d="m0 0 2 4v6h-3v-9z" fill="#0E374A"/>
<path transform="translate(926,594)" d="m0 0 2 1v6l3 1v2l-5-1z" fill="#38C9F4"/>
<path transform="translate(485,319)" d="m0 0h1l1 12-1 8h-1l-1-11z" fill="#38C9F4"/>
</svg>
